<?xml version="1.0" encoding="UTF-8" standalone="no"?>
<!DOCTYPE svg PUBLIC "-//W3C//DTD SVG 1.1//EN" "http://www.w3.org/Graphics/SVG/1.1/DTD/svg11.dtd">
<svg width="792pt" height="1224pt" viewBox="0 0 792 1224" overflow="visible" version="1.1" xmlns="http://www.w3.org/2000/svg">
  <path d="M113.3254,911.3242 L136.7421,830.3074 L188.266,845.1996 L184.0038,859.946 L411.5977,925.7285 L401.6355,960.1956 C391.3649,962.8741 383.0359,965.8254 376.6497,969.049 C370.2635,972.2725 363.9203,976.5681 357.6206,981.9338 L329.0155,973.666 L333.2778,958.9196 L169.1116,911.47 L164.8494,926.2164 z" stroke="#000000" stroke-width="0.24" fill-opacity="0" />
  <path d="M300.4066,734.9607 L354.9509,750.7258 L290.855,768.007 z" stroke="#000000" stroke-width="0.24" fill-opacity="0" />
  <path d="M275.4153,459.7608 L361.4064,484.6152 L380.0468,511.3722 L410.2654,498.7371 L496.0797,523.5404 L515.843,565.0607 L499.9754,619.9595 L480.5794,632.4501 L495.1481,636.6609 L480.2559,688.1849 L406.1685,666.7711 L421.0607,615.2471 L443.6241,621.7687 L458.9273,568.8229 L396.7437,550.8497 L380.4134,607.3491 L328.7117,592.4055 L345.042,535.9062 L282.8574,517.9327 L267.5542,570.8785 L290.1186,577.4003 L275.2264,628.9243 L230.2764,615.9322 L210.6382,574.6417 L236.7252,484.3861 z" stroke="#000000" stroke-width="0.24" fill-opacity="0" />
  <path d="M327.5892,279.2497 L434.9006,310.2664 L454.3096,351.6833 L433.7685,422.7512 L495.9521,440.7244 L510.9471,388.845 L488.3837,382.3234 L503.3272,330.6217 L577.4146,352.0355 L562.471,403.7372 L547.9023,399.5264 L557.644,420.4376 L542.033,474.4488 L503.2689,498.6675 L282.6044,434.8879 L263.0176,393.4196 L288.8994,303.874 z" stroke="#000000" stroke-width="0.24" fill-opacity="0" />
  <path d="M334.8258,338.1325 L397.0104,356.106 L382.0668,407.8076 L319.8822,389.8342 z" stroke="#000000" stroke-width="0.24" fill-opacity="0" />
  <path d="M379.7069,100.2619 L505.6746,136.6709 L525.0837,178.0878 L505.0049,247.5562 L548.1777,260.0346 L562.2483,211.3533 L539.6849,204.8317 L554.6284,153.13 L628.7158,174.5438 L613.7722,226.2455 L599.2036,222.0347 L608.9963,242.7691 L584.7581,326.6285 L467.6747,292.7874 L448.0375,251.4971 L468.1677,181.851 L386.7945,158.3313 L372.0564,209.3221 L394.6208,215.844 L379.7286,267.368 L335.133,254.4783 L315.4959,213.188 L340.9667,125.0642 z" stroke="#000000" stroke-width="0.24" fill-opacity="0" />
  <path d="M756.8559,1154.001 L21.59835,941.4865 L289.2097,15.60572 L752.15,149.4114 L594.7314,694.0477 C516.0225,966.3649 825.0345,909.2322 754.4859,1153.316" stroke="#000000" stroke-width="0.24" fill-opacity="0" />
  <path d="M222.0047,728.4707 L170.4807,713.5785 L193.9487,632.384 L245.4727,647.2762 L241.2104,662.0226 L263.7748,668.5445 L267.9343,654.1536 L319.4583,669.0458 L315.2988,683.4367 L468.8043,727.8051 L453.9121,779.329 L247.3348,835.3207 L227.4686,794.1568 L248.8826,720.0685 L226.3183,713.5466 z" stroke="#000000" stroke-width="0.24" fill-opacity="0" />
</svg>