<?xml version="1.0" encoding="UTF-8" standalone="no"?>
<!DOCTYPE svg PUBLIC "-//W3C//DTD SVG 1.1//EN" "http://www.w3.org/Graphics/SVG/1.1/DTD/svg11.dtd">
<svg width="792pt" height="1224pt" viewBox="0 0 792 1224" overflow="visible" version="1.1" xmlns="http://www.w3.org/2000/svg">
  <path d="M136.0187,935.5137 L261.0144,975.1284 L300.1443,951.4445 L321.991,882.5115 L364.831,896.0887 L349.5215,944.3948 L327.132,937.299 L310.8726,988.6021 L384.3898,1011.902 L400.6492,960.5986 L386.1919,956.0167 L405.8453,944.2032 L432.2181,860.9894 L316.0363,824.1682 L276.787,847.6201 L254.8843,916.7294 L174.1404,891.1394 L190.1762,840.5417 L212.5647,847.6373 L228.7682,796.5105 L184.5174,782.4861 L145.2681,805.9381 L117.5545,893.3826 z" stroke="#C80000" stroke-width="0.24" fill-opacity="0" />
  <path d="M230.6851,712.7243 L292.3894,732.2802 L308.6488,680.977 L246.9445,661.4212 z" stroke="#C80000" stroke-width="0.24" fill-opacity="0" />
  <path d="M191.9881,757.6926 L298.4713,791.4401 L337.6011,767.7562 L359.9509,697.2361 L421.6552,716.7919 L405.3399,768.2714 L382.9504,761.1755 L366.691,812.4786 L440.2082,835.7783 L456.4676,784.4752 L442.0103,779.8932 L461.7196,767.9035 L478.7053,714.3087 L459.8964,672.6495 L240.934,603.2542 L201.6268,626.8819 L173.4661,715.7372 z" stroke="#C80000" stroke-width="0.24" fill-opacity="0" />
  <path d="M248.7561,578.5731 L334.0843,605.616 L364.4395,593.701 L382.5667,620.9814 L467.7185,647.9684 L507.2014,624.3953 L524.4661,569.92 L515.2612,548.7654 L529.7184,553.3474 L545.9219,502.2206 L472.4048,478.921 L456.2013,530.0477 L478.5907,537.1436 L461.9401,589.6811 L400.2359,570.1253 L418.004,514.0616 L366.7019,497.8026 L348.9337,553.8662 L287.2295,534.3104 L303.8801,481.7729 L326.2686,488.8684 L342.4721,437.7417 L297.8695,423.6059 L258.6183,447.0573 L230.2343,536.6167 z" stroke="#C80000" stroke-width="0.24" fill-opacity="0" />
  <path d="M353.4404,325.3956 L302.3117,309.1915 L276.7773,389.7599 L327.906,405.9641 L332.5435,391.3314 L354.932,398.4269 L350.4063,412.7069 L401.5331,428.9104 L406.0588,414.6304 L558.3819,462.9059 L574.5854,411.7791 L433.805,250.5634 L394.4348,273.784 L371.1355,347.3001 L348.747,340.2046 z" stroke="#C80000" stroke-width="0.24" fill-opacity="0" />
  <path d="M422.2623,363.5036 L476.3861,380.657 L432.6548,330.7121 z" stroke="#C80000" stroke-width="0.24" fill-opacity="0" />
  <path d="M364.4997,112.9704 L339.0212,193.3625 L390.1499,209.5666 L394.7874,194.9339 L620.6257,266.5084 L631.4651,232.3069 C624.4064,224.379 619.1154,217.3017 615.5916,211.0761 C612.0677,204.8507 609.1746,197.7572 606.9116,189.7975 L578.527,180.8017 L573.8895,195.4343 L410.9909,143.8071 L415.6284,129.1745 z" stroke="#C80000" stroke-width="0.24" fill-opacity="0" />
  <path d="M747.395,1174.169 L17.80657,942.9418 L308.9818,24.19923 L768.3514,169.7863 L597.0717,710.2234 C511.4322,980.4413 821.803,931.2209 745.0424,1173.423" stroke="#C80000" stroke-width="0.24" fill-opacity="0" />
</svg>