<?xml version="1.0" encoding="UTF-8" standalone="no"?>
<!DOCTYPE svg PUBLIC "-//W3C//DTD SVG 1.1//EN" "http://www.w3.org/Graphics/SVG/1.1/DTD/svg11.dtd">
<svg width="2160pt" height="3024pt" viewBox="0 0 2160 3024" overflow="visible" version="1.1" xmlns="http://www.w3.org/2000/svg">
  <path d="M1420.592,2480.84 L1420.592,2349.717 L1386.193,2319.571 L1313.881,2319.571 L1313.881,2274.631 L1364.555,2274.631 L1364.555,2298.118 L1418.373,2298.118 L1418.373,2220.997 L1364.555,2220.997 L1364.555,2236.163 L1347.356,2220.997 L1260.063,2220.997 L1260.063,2342.874 L1294.277,2373.204 L1366.774,2373.204 L1366.774,2457.906 L1313.696,2457.906 L1313.696,2434.42 L1260.063,2434.42 L1260.063,2480.84 L1294.277,2511.17 L1386.008,2511.17 z" stroke="#000000" stroke-width="0.24" fill-opacity="0" />
  <path d="M1179.613,2457.906 L1179.613,2393.177 L1125.795,2393.177 L1125.795,2457.906 z" stroke="#000000" stroke-width="0.24" fill-opacity="0" />
  <path d="M1234.171,2481.209 L1234.171,2369.506 L1199.772,2339.36 L1125.795,2339.36 L1125.795,2274.631 L1179.798,2274.631 L1179.798,2298.118 L1233.616,2298.118 L1233.616,2220.997 L1179.798,2220.997 L1179.798,2236.163 L1162.414,2220.997 L1106.192,2220.997 L1072.162,2251.513 L1072.162,2481.209 L1106.561,2511.541 L1199.772,2511.541 z" stroke="#000000" stroke-width="0.24" fill-opacity="0" />
  <path d="M1046.271,2481.209 L1046.271,2391.698 L1025.742,2366.361 L1046.271,2340.839 L1046.271,2251.513 L1011.871,2220.997 L954.7253,2220.997 L937.3403,2236.163 L937.3403,2220.997 L883.7073,2220.997 L883.7073,2298.118 L937.3403,2298.118 L937.3403,2274.631 L992.4532,2274.631 L992.4532,2339.36 L933.6413,2339.36 L933.6413,2393.177 L992.4532,2393.177 L992.4532,2457.906 L937.3403,2457.906 L937.3403,2434.42 L883.7073,2434.42 L883.7073,2481.209 L917.9213,2511.541 L1011.871,2511.541 z" stroke="#000000" stroke-width="0.24" fill-opacity="0" />
  <path d="M773.2974,2457.906 L773.2974,2511.541 L857.8153,2511.541 L857.8153,2457.906 L842.4653,2457.906 L842.4653,2434.42 L857.4453,2434.42 L857.4453,2380.787 L842.4653,2380.787 L842.4653,2220.997 L788.8323,2220.997 L677.6824,2403.905 L711.7124,2434.42 L788.8323,2434.42 L788.8323,2457.906 z" stroke="#000000" stroke-width="0.24" fill-opacity="0" />
  <path d="M788.8323,2380.787 L788.8323,2324.01 L754.4333,2380.787 z" stroke="#000000" stroke-width="0.24" fill-opacity="0" />
  <path d="M567.4575,2511.541 L651.7904,2511.541 L651.7904,2457.906 L636.4404,2457.906 L636.4404,2220.997 L600.5624,2220.997 C595.1375,2230.121 589.9894,2237.303 585.1194,2242.543 C580.2495,2247.783 574.3615,2252.684 567.4575,2257.246 L567.4575,2287.022 L582.8074,2287.022 L582.8074,2457.906 L567.4575,2457.906 z" stroke="#000000" stroke-width="0.24" fill-opacity="0" />
  <path d="M1408.941,1626.389 L1324.608,1626.389 L1324.608,1572.756 L1339.958,1572.756 L1339.958,1335.846 L1375.836,1335.846 C1381.261,1344.969 1386.409,1352.151 1391.279,1357.391 C1396.149,1362.631 1402.037,1367.532 1408.941,1372.094 L1408.941,1401.87 L1393.591,1401.87 L1393.591,1572.756 L1408.941,1572.756 z" stroke="#000000" stroke-width="0.24" fill-opacity="0" />
  <path d="M1187.566,1495.635 L1187.566,1438.858 L1221.965,1495.635 z" stroke="#000000" stroke-width="0.24" fill-opacity="0" />
  <path d="M930.1273,1596.058 L930.1273,1506.547 L950.6563,1481.21 L930.1273,1455.688 L930.1273,1366.361 L964.5273,1335.846 L1021.673,1335.846 L1039.058,1351.011 L1039.058,1335.846 L1092.691,1335.846 L1092.691,1412.966 L1039.058,1412.966 L1039.058,1389.479 L983.9453,1389.479 L983.9453,1454.208 L1042.757,1454.208 L1042.757,1508.026 L983.9453,1508.026 L983.9453,1572.756 L1039.058,1572.756 L1039.058,1549.268 L1092.691,1549.268 L1092.691,1596.058 L1058.477,1626.389 L964.5273,1626.389 z" stroke="#000000" stroke-width="0.24" fill-opacity="0" />
  <path d="M742.2274,1596.058 L742.2274,1484.354 L776.6263,1454.208 L850.6033,1454.208 L850.6033,1389.479 L796.6003,1389.479 L796.6003,1412.966 L742.7823,1412.966 L742.7823,1335.846 L796.6003,1335.846 L796.6003,1351.011 L813.9843,1335.846 L870.2063,1335.846 L904.2363,1366.361 L904.2363,1596.058 L869.8373,1626.389 L776.6263,1626.389 z" stroke="#000000" stroke-width="0.24" fill-opacity="0" />
  <path d="M796.7853,1572.756 L796.7853,1508.026 L850.6033,1508.026 L850.6033,1572.756 z" stroke="#000000" stroke-width="0.24" fill-opacity="0" />
  <path d="M555.8065,1595.689 L555.8065,1464.565 L590.2054,1434.419 L662.5174,1434.419 L662.5174,1389.479 L611.8434,1389.479 L611.8434,1412.966 L558.0255,1412.966 L558.0255,1335.846 L611.8434,1335.846 L611.8434,1351.011 L629.0434,1335.846 L716.3354,1335.846 L716.3354,1457.722 L682.1214,1488.052 L609.6245,1488.052 L609.6245,1572.756 L662.7024,1572.756 L662.7024,1549.268 L716.3354,1549.268 L716.3354,1595.689 L682.1214,1626.019 L590.3904,1626.019 z" stroke="#000000" stroke-width="0.24" fill-opacity="0" />
  <path d="M1463.387,940.7803 L1463.387,1706.134 L499.6075,1706.134 L499.6075,1224.244 L1066.537,1224.244 C1350.001,1224.244 1209.312,943.2473 1463.387,943.2473" stroke="#000000" stroke-width="0.24" fill-opacity="0" />
  <path d="M647.0148,419.7309 C638.0237,418.8189 627.8307,429.0119 628.7418,438.0039 C627.8307,446.9948 638.0237,457.1888 647.0148,456.2769 C656.0068,457.1888 666.1998,446.9948 665.2877,438.0039 C666.1998,429.0119 656.0068,418.8189 647.0148,419.7309 z" stroke="#000000" stroke-width="0.24" fill-opacity="0" />
  <path d="M1463.387,1825.931 L1463.387,2591.284 L499.6075,2591.284 L499.6075,2109.396 L1066.537,2109.396 C1350.001,2109.396 1209.312,1828.399 1463.387,1828.399" stroke="#000000" stroke-width="0.24" fill-opacity="0" />
  <path d="M1203.101,1572.756 L1203.101,1626.389 L1118.583,1626.389 L1118.583,1572.756 L1133.933,1572.756 L1133.933,1549.268 L1118.953,1549.268 L1118.953,1495.635 L1133.933,1495.635 L1133.933,1335.846 L1187.566,1335.846 L1298.716,1518.753 L1264.687,1549.268 L1187.566,1549.268 L1187.566,1572.756 z" stroke="#000000" stroke-width="0.24" fill-opacity="0" />
  <path d="M1157.251,381.3109 L1157.251,494.6968 L1058.039,494.6968 L1058.039,381.3109 z" stroke="#000000" stroke-width="0.24" fill-opacity="0" />
  <path d="M788.7477,466.3509 L788.7477,352.965 L505.2828,352.965 L505.2828,806.5077 L1469.062,806.5077 L1469.062,409.6579 L1398.196,409.6579 L1398.196,352.965 L902.1337,352.965 L902.1337,466.3509 z" stroke="#000000" stroke-width="0.24" fill-opacity="0" />
</svg>