<?xml version="1.0" encoding="UTF-8" standalone="no"?>
<!DOCTYPE svg PUBLIC "-//W3C//DTD SVG 1.1//EN" "http://www.w3.org/Graphics/SVG/1.1/DTD/svg11.dtd">
<svg width="612pt" height="792pt" viewBox="0 0 612 792" overflow="visible" version="1.1" xmlns="http://www.w3.org/2000/svg">
  <path d="M98.43314,706.1631 L512.5187,706.1631 L512.5187,85.03477 L98.43314,85.03477 z" stroke="#C80000" stroke-width="0.24" fill-opacity="0" />
  <path d="M267.9384,161.3322 L267.9384,144.468 L263.2374,140.3171 L255.7977,140.3171 L254.2724,142.2327 L254.2724,140.3171 L244.601,140.3171 L244.601,148.0261 L246.54,148.0261 L246.54,170.2421 L244.601,170.2421 L244.601,177.9511 L256.2346,177.9511 L256.2346,170.2421 L254.2724,170.2421 L254.2724,165.4999 L263.2462,165.4999 z" stroke="#7D26CD" stroke-width="0.24" fill-opacity="0" />
  <path d="M503.6009,173.8535 L503.6009,159.3969 L498.9715,155.2679 L489.9816,155.2679 L489.9816,148.0261 L495.8685,148.0261 L495.8685,150.9929 L503.6009,150.9929 L503.6009,140.3171 L495.8685,140.3171 L495.8685,142.2327 L494.3526,140.3171 L486.9115,140.3171 L482.2492,144.4311 L482.2492,158.8936 L486.9035,163.0003 L495.8685,163.0003 L495.8685,170.2421 L489.9816,170.2421 L489.9816,167.2753 L482.2492,167.2753 L482.2492,173.8762 L486.8958,177.9511 L498.9788,177.9511 z" stroke="#7D26CD" stroke-width="0.24" fill-opacity="0" />
  <path d="M383.7606,177.9511 L395.3942,177.9511 L395.3942,170.2421 L393.3852,170.2421 L393.3852,148.0261 L395.3242,148.0261 L395.3242,140.3171 L385.7999,140.3171 L380.1941,152.9319 L374.6105,140.3171 L365.0954,140.3171 L365.0954,148.0261 L367.0577,148.0261 L367.0577,170.2421 L365.0254,170.2421 L365.0254,177.9511 L376.659,177.9511 L376.659,170.2421 L374.7901,170.2421 L374.7901,157.2769 L380.1923,169.8917 L385.6295,157.2769 L385.6295,170.2421 L383.7606,170.2421 z" stroke="#7D26CD" stroke-width="0.24" fill-opacity="0" />
  <path d="M207.6912,173.8627 L207.6912,144.4446 L203.0136,140.3171 L190.0425,140.3171 L185.4284,144.4326 L185.4284,173.8674 L190.0352,177.9511 L203.0293,177.9511 z" stroke="#7D26CD" stroke-width="0.24" fill-opacity="0" />
  <path d="M260.206,157.7909 L260.206,148.0261 L254.2724,148.0261 L254.2724,157.7909 z" stroke="#7D26CD" stroke-width="0.24" fill-opacity="0" />
  <path d="M471.2464,148.0261 L471.2464,150.9929 L478.9788,150.9929 L478.9788,140.3171 L453.8894,140.3171 L453.8894,150.9929 L461.6218,150.9929 L461.6218,148.0261 L462.5562,148.0261 L462.5562,170.2421 L460.6172,170.2421 L460.6172,177.9511 L472.2509,177.9511 L472.2509,170.2421 L470.312,170.2421 L470.312,148.0261 z" stroke="#7D26CD" stroke-width="0.24" fill-opacity="0" />
  <path d="M199.9354,170.2421 L199.9354,148.0261 L193.1608,148.0261 L193.1608,170.2421 z" stroke="#7D26CD" stroke-width="0.24" fill-opacity="0" />
  <path d="M296.1347,177.9511 L307.7683,177.9511 L307.7683,170.2421 L305.8294,170.2421 L305.8294,148.0261 L307.7683,148.0261 L307.7683,140.3171 L296.1347,140.3171 L296.1347,148.0261 L298.0736,148.0261 L298.0736,170.2421 L296.1347,170.2421 z" stroke="#7D26CD" stroke-width="0.24" fill-opacity="0" />
  <path d="M398.6647,177.9511 L421.0443,177.9511 L421.0443,167.2753 L413.3119,167.2753 L413.3119,170.2421 L408.3361,170.2421 L408.3361,163.0003 L417.6102,163.0003 L417.6102,155.2679 L408.3361,155.2679 L408.3361,148.0261 L413.3119,148.0261 L413.3119,150.9929 L421.0443,150.9929 L421.0443,140.3171 L398.6647,140.3171 L398.6647,148.0261 L400.6037,148.0261 L400.6037,170.2421 L398.6647,170.2421 z" stroke="#7D26CD" stroke-width="0.24" fill-opacity="0" />
  <path d="M182.1579,173.8583 L182.1579,167.2753 L174.4256,167.2753 L174.4256,170.2421 L168.0948,170.2421 L168.0948,148.0261 L174.4256,148.0261 L174.4256,150.9929 L182.1579,150.9929 L182.1579,140.3171 L174.4256,140.3171 L174.4256,142.2327 L173.0506,140.3171 L164.9765,140.3171 L160.3624,144.4326 L160.3624,173.8674 L164.9692,177.9511 L177.4161,177.9511 z" stroke="#7D26CD" stroke-width="0.24" fill-opacity="0" />
  <path d="M440.5753,177.9511 L448.6566,177.9511 L448.6566,148.0261 L450.6189,148.0261 L450.6189,140.3171 L439.0086,140.3171 L439.0086,148.0261 L440.9709,148.0261 L440.9709,159.5663 L434.3463,140.3171 L424.3381,140.3171 L424.3381,148.0261 L426.2771,148.0261 L426.2771,170.2421 L424.3148,170.2421 L424.3148,177.9511 L435.9484,177.9511 L435.9484,170.2421 L433.9861,170.2421 L433.9861,158.7253 z" stroke="#7D26CD" stroke-width="0.24" fill-opacity="0" />
  <path d="M350.1212,177.9511 L361.7549,177.9511 L361.7549,170.2421 L359.7926,170.2421 L359.7926,148.0261 L361.7549,148.0261 L361.7549,140.3171 L350.1212,140.3171 L350.1212,148.0261 L352.0602,148.0261 L352.0602,155.2679 L345.3323,155.2679 L345.3323,148.0261 L347.2946,148.0261 L347.2946,140.3171 L335.661,140.3171 L335.661,148.0261 L337.5999,148.0261 L337.5999,170.2421 L335.661,170.2421 L335.661,177.9511 L347.2946,177.9511 L347.2946,170.2421 L345.3323,170.2421 L345.3323,163.0003 L352.0602,163.0003 L352.0602,170.2421 L350.1212,170.2421 z" stroke="#7D26CD" stroke-width="0.24" fill-opacity="0" />
  <path d="M117.5657,160.5007 L120.3689,160.5007 L118.9545,152.0208 z" stroke="#7D26CD" stroke-width="0.24" fill-opacity="0" />
  <path d="M120.3923,177.9511 L132.0259,177.9511 L132.0259,170.2421 L130.0892,170.2421 L124.1088,140.3171 L113.7944,140.3171 L107.814,170.2421 L105.9321,170.2421 L105.9321,177.9511 L117.5657,177.9511 L117.5657,170.2421 L115.6034,170.2421 L116.0987,168.2097 L121.8045,168.2097 L122.3079,170.2421 L120.3923,170.2421 z" stroke="#7D26CD" stroke-width="0.24" fill-opacity="0" />
  <path d="M332.3905,173.8535 L332.3905,159.3969 L327.761,155.2679 L318.7712,155.2679 L318.7712,148.0261 L324.6581,148.0261 L324.6581,150.9929 L332.3905,150.9929 L332.3905,140.3171 L324.6581,140.3171 L324.6581,142.2327 L323.1422,140.3171 L315.7011,140.3171 L311.0388,144.4311 L311.0388,158.8936 L315.6931,163.0003 L324.6581,163.0003 L324.6581,170.2421 L318.7712,170.2421 L318.7712,167.2753 L311.0388,167.2753 L311.0388,173.8762 L315.6854,177.9511 L327.7683,177.9511 z" stroke="#7D26CD" stroke-width="0.24" fill-opacity="0" />
  <path d="M229.6969,177.9511 L241.3306,177.9511 L241.3306,170.2421 L239.3215,170.2421 L239.3215,148.0261 L241.2605,148.0261 L241.2605,140.3171 L231.7363,140.3171 L226.1304,152.9319 L220.5468,140.3171 L211.0318,140.3171 L211.0318,148.0261 L212.994,148.0261 L212.994,170.2421 L210.9617,170.2421 L210.9617,177.9511 L222.5953,177.9511 L222.5953,170.2421 L220.7264,170.2421 L220.7264,157.2769 L226.1286,169.8917 L231.5658,157.2769 L231.5658,170.2421 L229.6969,170.2421 z" stroke="#7D26CD" stroke-width="0.24" fill-opacity="0" />
  <path d="M157.0919,173.8583 L157.0919,167.2753 L149.3596,167.2753 L149.3596,170.2421 L143.0288,170.2421 L143.0288,148.0261 L149.3596,148.0261 L149.3596,150.9929 L157.0919,150.9929 L157.0919,140.3171 L149.3596,140.3171 L149.3596,142.2327 L147.9846,140.3171 L139.9105,140.3171 L135.2964,144.4326 L135.2964,173.8674 L139.9032,177.9511 L152.3501,177.9511 z" stroke="#7D26CD" stroke-width="0.24" fill-opacity="0" />
  <path d="M271.2089,177.9511 L292.8642,177.9511 L292.8642,167.2753 L285.1085,167.2753 L285.1085,170.2421 L280.9035,170.2421 L280.9035,148.0261 L282.8425,148.0261 L282.8425,140.3171 L271.2089,140.3171 L271.2089,148.0261 L273.1478,148.0261 L273.1478,170.2421 L271.2089,170.2421 z" stroke="#7D26CD" stroke-width="0.24" fill-opacity="0" />
  <path d="M464.0241,263.4968 L469.4465,263.4968 L469.4465,260.0559 L468.4617,260.0559 L468.4617,248.2975 L469.4465,248.2975 L469.4465,244.8566 L464.0241,244.8566 L464.0241,248.2975 L465.0089,248.2975 L465.0089,260.0559 L464.0241,260.0559 z" stroke="#000000" stroke-width="0.24" fill-opacity="0" />
  <path d="M458.9102,248.2975 L458.9102,249.8044 L462.363,249.8044 L462.363,244.8566 L451.4826,244.8566 L451.4826,248.2975 L452.4674,248.2975 L452.4674,260.0559 L451.4826,260.0559 L451.4826,263.4968 L456.8932,263.4968 L456.8932,260.0559 L455.9202,260.0559 L455.9202,255.9031 L460.6188,255.9031 L460.6188,252.4503 L455.9202,252.4503 L455.9202,248.2975 z" stroke="#000000" stroke-width="0.24" fill-opacity="0" />
  <path d="M396.3214,264.2562 L400.2844,264.2562 L399.6199,263.4256 L401.7675,261.5391 L401.7675,246.8144 L399.5487,244.8566 L393.1534,244.8566 L390.9464,246.8144 L390.9464,261.5509 L393.1296,263.4968 L395.6925,263.4968 z" stroke="#000000" stroke-width="0.24" fill-opacity="0" />
  <path d="M444.3991,263.4968 L449.8215,263.4968 L449.8215,260.0559 L448.8367,260.0559 L448.8367,248.2975 L449.8215,248.2975 L449.8215,244.8566 L444.3991,244.8566 L444.3991,248.2975 L445.3839,248.2975 L445.3839,260.0559 L444.3991,260.0559 z" stroke="#000000" stroke-width="0.24" fill-opacity="0" />
  <path d="M125.147,263.4968 L130.5694,263.4968 L130.5694,260.0559 L129.632,260.0559 L126.5945,244.8566 L121.7535,244.8566 L118.7161,260.0559 L117.8024,260.0559 L117.8024,263.4968 L123.2248,263.4968 L123.2248,260.0559 L122.2282,260.0559 L122.5248,258.549 L125.8233,258.549 L126.1199,260.0559 L125.147,260.0559 z" stroke="#000000" stroke-width="0.24" fill-opacity="0" />
  <path d="M123.2248,255.1081 L125.1351,255.1081 L124.174,250.3264 z" stroke="#000000" stroke-width="0.24" fill-opacity="0" />
  <path d="M112.7004,260.0559 L112.7004,248.2975 L108.8917,248.2975 L108.8917,260.0559 z" stroke="#000000" stroke-width="0.24" fill-opacity="0" />
  <path d="M113.9107,244.8566 L109.9951,244.8566 L108.8917,245.8295 L108.8917,244.8566 L104.4541,244.8566 L104.4541,248.2975 L105.4389,248.2975 L105.4389,260.0559 L104.4541,260.0559 L104.4541,263.4968 L113.9107,263.4968 L116.1413,261.5391 L116.1413,246.8262 z" stroke="#000000" stroke-width="0.24" fill-opacity="0" />
  <path d="M481.1178,223.4471 L494.6433,223.4471 L494.6433,217.0812 L490.201,217.0812 L490.201,219.02 L486.8272,219.02 L486.8272,203.8915 L488.0943,203.8915 L488.0943,199.4644 L481.1178,199.4644 L481.1178,203.8915 L482.3849,203.8915 L482.3849,219.02 L481.1178,219.02 z" stroke="#000000" stroke-width="0.24" fill-opacity="0" />
  <path d="M464.9818,223.4471 L478.9806,223.4471 L478.9806,217.0812 L474.5535,217.0812 L474.5535,219.02 L470.676,219.02 L470.676,213.6769 L476.7365,213.6769 L476.7365,209.2346 L470.676,209.2346 L470.676,203.8915 L474.5535,203.8915 L474.5535,205.8303 L478.9806,205.8303 L478.9806,199.4644 L464.9818,199.4644 L464.9818,203.8915 L466.2489,203.8915 L466.2489,219.02 L464.9818,219.02 z" stroke="#000000" stroke-width="0.24" fill-opacity="0" />
  <path d="M454.7537,213.28 L453.5935,208.0591 L452.6623,203.8915 L453.624,203.8915 L453.624,199.4644 L446.6628,199.4644 L446.6628,203.8915 L448.1131,203.8915 L452.4944,223.4471 L457.0283,223.4471 L461.3943,203.8915 L462.8446,203.8915 L462.8446,199.4644 L455.8834,199.4644 L455.8834,203.8915 L456.8451,203.8915 L455.9063,208.1049 z" stroke="#000000" stroke-width="0.24" fill-opacity="0" />
  <path d="M430.5268,223.4471 L444.5256,223.4471 L444.5256,217.0812 L440.0985,217.0812 L440.0985,219.02 L436.221,219.02 L436.221,213.6769 L442.2815,213.6769 L442.2815,209.2346 L436.221,209.2346 L436.221,203.8915 L440.0985,203.8915 L440.0985,205.8303 L444.5256,205.8303 L444.5256,199.4644 L430.5268,199.4644 L430.5268,203.8915 L431.7939,203.8915 L431.7939,219.02 L430.5268,219.02 z" stroke="#000000" stroke-width="0.24" fill-opacity="0" />
  <path d="M432.2254,263.4968 L442.738,263.4968 L442.738,258.549 L439.2852,258.549 L439.2852,260.0559 L436.663,260.0559 L436.663,248.2975 L437.6478,248.2975 L437.6478,244.8566 L432.2254,244.8566 L432.2254,248.2975 L433.2103,248.2975 L433.2103,260.0559 L432.2254,260.0559 z" stroke="#000000" stroke-width="0.24" fill-opacity="0" />
  <path d="M312.1479,248.2975 L312.1479,249.8044 L315.5888,249.8044 L315.5888,244.8566 L303.332,244.8566 L303.332,249.8044 L306.7729,249.8044 L306.7729,248.2975 L307.734,248.2975 L307.734,260.0559 L306.7492,260.0559 L306.7492,263.4968 L312.1716,263.4968 L312.1716,260.0559 L311.1868,260.0559 L311.1868,248.2975 z" stroke="#000000" stroke-width="0.24" fill-opacity="0" />
  <path d="M139.9429,256.6269 L142.9448,248.2975 L144.0601,248.2975 L144.0601,244.8566 L138.7801,244.8566 L138.7801,248.2975 L139.3734,248.2975 L138.2106,251.7977 L137.024,248.2975 L137.6529,248.2975 L137.6529,244.8566 L132.2305,244.8566 L132.2305,248.2975 L133.5357,248.2975 L136.4545,256.6031 L136.4545,260.0559 L135.4816,260.0559 L135.4816,263.4968 L140.904,263.4968 L140.904,260.0559 L139.9429,260.0559 z" stroke="#000000" stroke-width="0.24" fill-opacity="0" />
  <path d="M154.5371,248.2975 L154.5371,249.8044 L157.978,249.8044 L157.978,244.8566 L145.7212,244.8566 L145.7212,249.8044 L149.1621,249.8044 L149.1621,248.2975 L150.1232,248.2975 L150.1232,260.0559 L149.1384,260.0559 L149.1384,263.4968 L154.5608,263.4968 L154.5608,260.0559 L153.576,260.0559 L153.576,248.2975 z" stroke="#000000" stroke-width="0.24" fill-opacity="0" />
  <path d="M423.2198,255.1081 L425.1301,255.1081 L424.169,250.3264 z" stroke="#000000" stroke-width="0.24" fill-opacity="0" />
  <path d="M170.4601,261.5509 L170.4601,246.8144 L168.2413,244.8566 L161.8342,244.8566 L159.6391,246.8144 L159.6391,261.5509 L161.8342,263.4968 L168.2413,263.4968 z" stroke="#000000" stroke-width="0.24" fill-opacity="0" />
  <path d="M213.1261,220.9435 L213.1261,201.9833 L210.2714,199.4644 L202.0278,199.4644 L199.2037,201.9833 L199.2037,220.9435 L202.0278,223.4471 L210.2714,223.4471 z" stroke="#000000" stroke-width="0.24" fill-opacity="0" />
  <path d="M208.6837,219.02 L208.6837,203.8915 L203.6308,203.8915 L203.6308,219.02 z" stroke="#000000" stroke-width="0.24" fill-opacity="0" />
  <path d="M167.0074,260.0559 L167.0074,248.2975 L163.08,248.2975 L163.08,260.0559 z" stroke="#000000" stroke-width="0.24" fill-opacity="0" />
  <path d="M190.09,223.4471 L197.0665,223.4471 L197.0665,219.02 L195.7994,219.02 L195.7994,203.8915 L197.0665,203.8915 L197.0665,199.4644 L190.09,199.4644 L190.09,203.8915 L191.357,203.8915 L191.357,219.02 L190.09,219.02 z" stroke="#000000" stroke-width="0.24" fill-opacity="0" />
  <path d="M183.5257,203.8915 L183.5257,205.8303 L187.9527,205.8303 L187.9527,199.4644 L172.1831,199.4644 L172.1831,205.8303 L176.6102,205.8303 L176.6102,203.8915 L177.8468,203.8915 L177.8468,219.02 L176.5797,219.02 L176.5797,223.4471 L183.5562,223.4471 L183.5562,219.02 L182.2891,219.02 L182.2891,203.8915 z" stroke="#000000" stroke-width="0.24" fill-opacity="0" />
  <path d="M160.5964,212.6541 L163.0542,212.6541 L161.8176,206.502 z" stroke="#000000" stroke-width="0.24" fill-opacity="0" />
  <path d="M163.0694,223.4471 L170.0459,223.4471 L170.0459,219.02 L168.8399,219.02 L164.9319,199.4644 L158.7034,199.4644 L154.7953,219.02 L153.6199,219.02 L153.6199,223.4471 L160.5964,223.4471 L160.5964,219.02 L159.314,219.02 L159.6957,217.0812 L163.9396,217.0812 L164.3212,219.02 L163.0694,219.02 z" stroke="#000000" stroke-width="0.24" fill-opacity="0" />
  <path d="M151.4827,220.9435 L151.4827,217.0812 L147.0556,217.0812 L147.0556,219.02 L142.2926,219.02 L142.2926,203.8915 L147.0556,203.8915 L147.0556,205.8303 L151.4827,205.8303 L151.4827,199.4644 L147.0556,199.4644 L147.0556,200.7162 L145.7274,199.4644 L140.6897,199.4644 L137.8656,201.9833 L137.8656,220.9435 L140.6897,223.4471 L148.5822,223.4471 z" stroke="#000000" stroke-width="0.24" fill-opacity="0" />
  <path d="M131.286,219.02 L131.286,203.8915 L126.233,203.8915 L126.233,219.02 z" stroke="#000000" stroke-width="0.24" fill-opacity="0" />
  <path d="M135.7283,220.9435 L135.7283,201.9833 L132.8736,199.4644 L124.6301,199.4644 L121.8059,201.9833 L121.8059,220.9435 L124.6301,223.4471 L132.8736,223.4471 z" stroke="#000000" stroke-width="0.24" fill-opacity="0" />
  <path d="M106.1432,223.4471 L119.6687,223.4471 L119.6687,217.0812 L115.2263,217.0812 L115.2263,219.02 L111.8526,219.02 L111.8526,203.8915 L113.1196,203.8915 L113.1196,199.4644 L106.1432,199.4644 L106.1432,203.8915 L107.4102,203.8915 L107.4102,219.02 L106.1432,219.02 z" stroke="#000000" stroke-width="0.24" fill-opacity="0" />
  <path d="M123.5189,120.9818 L123.5189,110.0688 L120.1652,107.0777 L112.9503,107.0777 L112.9503,100.7329 L118.2618,100.7329 L118.2618,103.0351 L123.5189,103.0351 L123.5189,95.47578 L118.2618,95.47578 L118.2618,96.96228 L116.5759,95.47578 L111.0831,95.47578 L107.6932,98.4669 L107.6932,109.3618 L111.0831,112.3529 L118.2618,112.3529 L118.2618,118.6977 L112.9503,118.6977 L112.9503,116.3954 L107.6932,116.3954 L107.6932,120.9818 L111.0831,123.9548 L120.1652,123.9548 z" stroke="#000000" stroke-width="0.24" fill-opacity="0" />
  <path d="M153.0312,120.9637 L153.0312,100.7329 L154.5358,100.7329 L154.5358,95.47578 L146.2513,95.47578 L146.2513,100.7329 L147.7741,100.7329 L147.7741,118.6977 L141.8825,118.6977 L141.8825,100.7329 L143.3871,100.7329 L143.3871,95.47578 L135.1208,95.47578 L135.1208,100.7329 L136.6254,100.7329 L136.6254,120.9818 L139.9972,123.9548 L149.5869,123.9548 z" stroke="#000000" stroke-width="0.24" fill-opacity="0" />
  <path d="M180.6763,123.9548 L188.9608,123.9548 L188.9608,118.6977 L187.4018,118.6977 L187.4018,100.7329 L188.9064,100.7329 L188.9064,95.47578 L182.1266,95.47578 L177.5402,105.2649 L172.9719,95.47578 L166.1921,95.47578 L166.1921,100.7329 L167.7148,100.7329 L167.7148,118.6977 L166.1377,118.6977 L166.1377,123.9548 L174.4222,123.9548 L174.4222,118.6977 L172.9719,118.6977 L172.9719,107.9116 L177.5402,117.7007 L182.1266,107.9116 L182.1266,118.6977 L180.6763,118.6977 z" stroke="#000000" stroke-width="0.24" fill-opacity="0" />
  <path d="M215.1013,123.9548 L223.3858,123.9548 L223.3858,118.6977 L221.8268,118.6977 L221.8268,100.7329 L223.3314,100.7329 L223.3314,95.47578 L216.5515,95.47578 L211.9652,105.2649 L207.3969,95.47578 L200.6171,95.47578 L200.6171,100.7329 L202.1398,100.7329 L202.1398,118.6977 L200.5627,118.6977 L200.5627,123.9548 L208.8472,123.9548 L208.8472,118.6977 L207.3969,118.6977 L207.3969,107.9116 L211.9652,117.7007 L216.5515,107.9116 L216.5515,118.6977 L215.1013,118.6977 z" stroke="#000000" stroke-width="0.24" fill-opacity="0" />
  <path d="M234.9877,123.9548 L243.2721,123.9548 L243.2721,118.6977 L241.7675,118.6977 L241.7675,100.7329 L243.2721,100.7329 L243.2721,95.47578 L234.9877,95.47578 L234.9877,100.7329 L236.4923,100.7329 L236.4923,118.6977 L234.9877,118.6977 z" stroke="#000000" stroke-width="0.24" fill-opacity="0" />
  <path d="M268.3431,100.7329 L268.3431,103.0351 L273.6002,103.0351 L273.6002,95.47578 L254.874,95.47578 L254.874,103.0351 L260.1311,103.0351 L260.1311,100.7329 L261.5995,100.7329 L261.5995,118.6977 L260.0949,118.6977 L260.0949,123.9548 L268.3794,123.9548 L268.3794,118.6977 L266.8747,118.6977 L266.8747,100.7329 z" stroke="#000000" stroke-width="0.24" fill-opacity="0" />
  <path d="M312.7203,123.9548 L312.7203,118.6977 L310.6719,118.6977 L308.1702,112.2804 L311.7596,108.9267 L311.7596,98.4669 L308.4059,95.47578 L302.7499,95.47578 L301.0459,96.96228 L301.0459,95.47578 L294.2661,95.47578 L294.2661,100.7329 L295.7707,100.7329 L295.7707,118.6977 L294.2661,118.6977 L294.2661,123.9548 L302.5505,123.9548 L302.5505,118.6977 L301.0459,118.6977 L301.0459,112.3529 L302.6049,112.3529 L307.0825,123.9548 z" stroke="#000000" stroke-width="0.24" fill-opacity="0" />
  <path d="M301.0459,107.0777 L306.5024,107.0777 L306.5024,100.7329 L301.0459,100.7329 z" stroke="#000000" stroke-width="0.24" fill-opacity="0" />
  <path d="M340.8549,120.9818 L340.8549,98.4669 L337.465,95.47578 L327.6759,95.47578 L324.3222,98.4669 L324.3222,120.9818 L327.6759,123.9548 L337.465,123.9548 z" stroke="#000000" stroke-width="0.24" fill-opacity="0" />
  <path d="M335.5797,118.6977 L335.5797,100.7329 L329.5793,100.7329 L329.5793,118.6977 z" stroke="#000000" stroke-width="0.24" fill-opacity="0" />
  <path d="M353.9795,118.6977 L352.4568,118.6977 L352.4568,123.9548 L366.5422,123.9548 L369.914,120.9818 L369.914,112.2079 L367.8837,109.6881 L369.914,107.2227 L369.914,98.4669 L366.5422,95.47578 L360.9407,95.47578 L359.2366,96.96228 L359.2366,95.47578 L352.4568,95.47578 L352.4568,100.7148 L353.9795,100.7148 z" stroke="#000000" stroke-width="0.24" fill-opacity="0" />
  <path d="M359.2366,107.0777 L364.6388,107.0777 L364.6388,100.7329 L359.2366,100.7329 z" stroke="#000000" stroke-width="0.24" fill-opacity="0" />
  <path d="M359.2366,118.6977 L364.6388,118.6977 L364.6388,112.3529 L359.2366,112.3529 z" stroke="#000000" stroke-width="0.24" fill-opacity="0" />
  <path d="M425.1419,263.4968 L430.5643,263.4968 L430.5643,260.0559 L429.627,260.0559 L426.5895,244.8566 L421.7485,244.8566 L418.711,260.0559 L417.7974,260.0559 L417.7974,263.4968 L423.2198,263.4968 L423.2198,260.0559 L422.2231,260.0559 L422.5197,258.549 L425.8182,258.549 L426.1149,260.0559 L425.1419,260.0559 z" stroke="#000000" stroke-width="0.24" fill-opacity="0" />
  <path d="M301.6709,261.5509 L301.6709,255.8082 L300.3301,254.1826 L301.6709,252.5452 L301.6709,246.8144 L299.464,244.8566 L293.4483,244.8566 L291.2414,246.8144 L291.2414,252.5452 L292.5584,254.1826 L291.2414,255.8082 L291.2414,261.5509 L293.4483,263.4968 L299.464,263.4968 z" stroke="#000000" stroke-width="0.24" fill-opacity="0" />
  <path d="M225.7967,223.4471 L230.5444,223.4471 L230.5444,203.8915 L231.8268,203.8915 L231.8268,199.4644 L224.8655,199.4644 L224.8655,203.8915 L226.1479,203.8915 L226.1479,212.0435 L221.2933,199.4644 L215.2786,199.4644 L215.2786,203.8915 L216.5457,203.8915 L216.5457,219.02 L215.2633,219.02 L215.2633,223.4471 L222.2398,223.4471 L222.2398,219.02 L220.9575,219.02 L220.9575,210.8833 z" stroke="#000000" stroke-width="0.24" fill-opacity="0" />
  <path d="M295.3021,223.4471 L295.3021,219.02 L293.577,219.02 L291.4704,213.6159 L294.493,210.7917 L294.493,201.9833 L291.6688,199.4644 L286.9059,199.4644 L285.4709,200.7162 L285.4709,199.4644 L279.7615,199.4644 L279.7615,203.8915 L281.0285,203.8915 L281.0285,219.02 L279.7615,219.02 L279.7615,223.4471 L286.7379,223.4471 L286.7379,219.02 L285.4709,219.02 L285.4709,213.6769 L286.7838,213.6769 L290.5544,223.4471 z" stroke="#000000" stroke-width="0.24" fill-opacity="0" />
  <path d="M180.3082,263.4968 L183.9983,263.4968 L183.9983,248.2975 L184.995,248.2975 L184.995,244.8566 L179.5845,244.8566 L179.5845,248.2975 L180.5811,248.2975 L180.5811,254.6335 L176.808,244.8566 L172.1331,244.8566 L172.1331,248.2975 L173.1179,248.2975 L173.1179,260.0559 L172.1213,260.0559 L172.1213,263.4968 L177.5437,263.4968 L177.5437,260.0559 L176.547,260.0559 L176.547,253.7318 z" stroke="#000000" stroke-width="0.24" fill-opacity="0" />
  <path d="M285.4709,209.2346 L290.0659,209.2346 L290.0659,203.8915 L285.4709,203.8915 z" stroke="#000000" stroke-width="0.24" fill-opacity="0" />
  <path d="M306.8889,223.4471 L313.8653,223.4471 L313.8653,219.02 L312.6593,219.02 L308.7513,199.4644 L302.5228,199.4644 L298.6148,219.02 L297.4393,219.02 L297.4393,223.4471 L304.4158,223.4471 L304.4158,219.02 L303.1335,219.02 L303.5151,217.0812 L307.759,217.0812 L308.1407,219.02 L306.8889,219.02 z" stroke="#000000" stroke-width="0.24" fill-opacity="0" />
  <path d="M488.0867,252.4503 L491.6582,252.4503 L491.6582,248.2975 L488.0867,248.2975 z" stroke="#000000" stroke-width="0.24" fill-opacity="0" />
  <path d="M415.1514,261.5391 L415.1514,248.2975 L416.1363,248.2975 L416.1363,244.8566 L410.7139,244.8566 L410.7139,248.2975 L411.7105,248.2975 L411.7105,260.0559 L407.8543,260.0559 L407.8543,248.2975 L408.8392,248.2975 L408.8392,244.8566 L403.4286,244.8566 L403.4286,248.2975 L404.4135,248.2975 L404.4135,261.5509 L406.6204,263.4968 L412.8971,263.4968 z" stroke="#000000" stroke-width="0.24" fill-opacity="0" />
  <path d="M304.4158,212.6541 L306.8736,212.6541 L305.6371,206.502 z" stroke="#000000" stroke-width="0.24" fill-opacity="0" />
  <path d="M503.4626,120.9818 L503.4626,110.0688 L500.1089,107.0777 L492.894,107.0777 L492.894,100.7329 L498.2055,100.7329 L498.2055,103.0351 L503.4626,103.0351 L503.4626,95.47578 L498.2055,95.47578 L498.2055,96.96228 L496.5196,95.47578 L491.0269,95.47578 L487.6369,98.4669 L487.6369,109.3618 L491.0269,112.3529 L498.2055,112.3529 L498.2055,118.6977 L492.894,118.6977 L492.894,116.3954 L487.6369,116.3954 L487.6369,120.9818 L491.0269,123.9548 L500.1089,123.9548 z" stroke="#000000" stroke-width="0.24" fill-opacity="0" />
  <path d="M476.035,120.9818 L476.035,116.3954 L470.7779,116.3954 L470.7779,118.6977 L465.122,118.6977 L465.122,100.7329 L470.7779,100.7329 L470.7779,103.0351 L476.035,103.0351 L476.035,95.47578 L470.7779,95.47578 L470.7779,96.96228 L469.2008,95.47578 L463.2186,95.47578 L459.8649,98.4669 L459.8649,120.9818 L463.2186,123.9548 L472.5907,123.9548 z" stroke="#000000" stroke-width="0.24" fill-opacity="0" />
  <path d="M326.536,223.4471 L331.2836,223.4471 L331.2836,203.8915 L332.566,203.8915 L332.566,199.4644 L325.6048,199.4644 L325.6048,203.8915 L326.8871,203.8915 L326.8871,212.0435 L322.0326,199.4644 L316.0178,199.4644 L316.0178,203.8915 L317.2849,203.8915 L317.2849,219.02 L316.0025,219.02 L316.0025,223.4471 L322.979,223.4471 L322.979,219.02 L321.6967,219.02 L321.6967,210.8833 z" stroke="#000000" stroke-width="0.24" fill-opacity="0" />
  <path d="M495.7279,263.4968 L495.7279,260.0559 L494.3871,260.0559 L492.7498,255.8556 L495.0991,253.6606 L495.0991,246.8144 L492.904,244.8566 L489.2021,244.8566 L488.0867,245.8295 L488.0867,244.8566 L483.6492,244.8566 L483.6492,248.2975 L484.634,248.2975 L484.634,260.0559 L483.6492,260.0559 L483.6492,263.4968 L489.0716,263.4968 L489.0716,260.0559 L488.0867,260.0559 L488.0867,255.9031 L489.1071,255.9031 L492.0378,263.4968 z" stroke="#000000" stroke-width="0.24" fill-opacity="0" />
  <path d="M439.9785,123.9548 L448.263,123.9548 L448.263,118.6977 L446.7584,118.6977 L446.7584,100.7329 L448.263,100.7329 L448.263,95.47578 L439.9785,95.47578 L439.9785,100.7329 L441.4832,100.7329 L441.4832,118.6977 L439.9785,118.6977 z" stroke="#000000" stroke-width="0.24" fill-opacity="0" />
  <path d="M423.1195,100.7329 L423.1195,103.0351 L428.3766,103.0351 L428.3766,95.47578 L409.6505,95.47578 L409.6505,103.0351 L414.9076,103.0351 L414.9076,100.7329 L416.3759,100.7329 L416.3759,118.6977 L414.8713,118.6977 L414.8713,123.9548 L423.1558,123.9548 L423.1558,118.6977 L421.6512,118.6977 L421.6512,100.7329 z" stroke="#000000" stroke-width="0.24" fill-opacity="0" />
  <path d="M351.6635,203.8915 L351.6635,199.4644 L344.1527,199.4644 L344.1527,203.8915 L344.7634,203.8915 L340.3973,209.433 L340.3973,203.8915 L341.6644,203.8915 L341.6644,199.4644 L334.7032,199.4644 L334.7032,203.8915 L335.9702,203.8915 L335.9702,219.02 L334.7032,219.02 L334.7032,223.4471 L341.6644,223.4471 L341.6644,219.02 L340.3973,219.02 L340.3973,216.6537 L342.5346,213.9212 L345.1755,219.02 L344.1527,219.02 L344.1527,223.4471 L351.6635,223.4471 L351.6635,219.02 L350.1827,219.02 L345.5267,210.0894 L350.3965,203.8915 z" stroke="#000000" stroke-width="0.24" fill-opacity="0" />
  <path d="M392.7733,118.6977 L392.7733,100.7329 L386.773,100.7329 L386.773,118.6977 z" stroke="#000000" stroke-width="0.24" fill-opacity="0" />
  <path d="M398.0486,120.9818 L398.0486,98.4669 L394.6587,95.47578 L384.8696,95.47578 L381.5159,98.4669 L381.5159,120.9818 L384.8696,123.9548 L394.6587,123.9548 z" stroke="#000000" stroke-width="0.24" fill-opacity="0" />
  <path d="M414.8641,223.4471 L428.3896,223.4471 L428.3896,217.0812 L423.9472,217.0812 L423.9472,219.02 L420.5735,219.02 L420.5735,203.8915 L421.8406,203.8915 L421.8406,199.4644 L414.8641,199.4644 L414.8641,203.8915 L416.1311,203.8915 L416.1311,219.02 L414.8641,219.02 z" stroke="#000000" stroke-width="0.24" fill-opacity="0" />
  <path d="M471.1077,263.4968 L481.988,263.4968 L481.988,258.549 L478.5471,258.549 L478.5471,260.0559 L475.5334,260.0559 L475.5334,255.9031 L480.2439,255.9031 L480.2439,252.4503 L475.5334,252.4503 L475.5334,248.2975 L478.5471,248.2975 L478.5471,249.8044 L481.988,249.8044 L481.988,244.8566 L471.1077,244.8566 L471.1077,248.2975 L472.0925,248.2975 L472.0925,260.0559 L471.1077,260.0559 z" stroke="#000000" stroke-width="0.24" fill-opacity="0" />
  <path d="M398.3147,260.0559 L398.3147,248.2975 L394.3874,248.2975 L394.3874,260.0559 z" stroke="#000000" stroke-width="0.24" fill-opacity="0" />
  <path d="M324.5945,263.4968 L330.0168,263.4968 L330.0168,260.0559 L329.0201,260.0559 L329.0201,248.2975 L330.0168,248.2975 L330.0168,244.8566 L324.5945,244.8566 L324.5945,248.2975 L325.5793,248.2975 L325.5793,252.4503 L321.6756,252.4503 L321.6756,248.2975 L322.6723,248.2975 L322.6723,244.8566 L317.2499,244.8566 L317.2499,248.2975 L318.2347,248.2975 L318.2347,260.0559 L317.2499,260.0559 L317.2499,263.4968 L322.6723,263.4968 L322.6723,260.0559 L321.6756,260.0559 L321.6756,255.9031 L325.5793,255.9031 L325.5793,260.0559 L324.5945,260.0559 z" stroke="#000000" stroke-width="0.24" fill-opacity="0" />
  <path d="M298.2181,260.0559 L298.2181,255.9031 L294.6823,255.9031 L294.6823,260.0559 z" stroke="#000000" stroke-width="0.24" fill-opacity="0" />
  <path d="M298.2181,252.4503 L298.2181,248.2975 L294.6823,248.2975 L294.6823,252.4503 z" stroke="#000000" stroke-width="0.24" fill-opacity="0" />
  <path d="M119.1374,234.1056 L491.8144,234.1056" stroke="#000000" stroke-width="0.24" fill-opacity="0" />
  <path d="M119.1374,188.5562 L491.8144,188.5562" stroke="#000000" stroke-width="0.24" fill-opacity="0" />
</svg>