<?xml version="1.0" encoding="UTF-8" standalone="no"?>
<!DOCTYPE svg PUBLIC "-//W3C//DTD SVG 1.1//EN" "http://www.w3.org/Graphics/SVG/1.1/DTD/svg11.dtd">
<svg width="2160pt" height="3024pt" viewBox="0 0 2160 3024" overflow="visible" version="1.1" xmlns="http://www.w3.org/2000/svg">
  <path d="M1200.844,1109.799 L1163.862,1109.799 C1154.616,1109.799 1154.616,1105.177 1154.616,1100.554 C1154.616,1095.931 1154.616,1091.308 1163.862,1091.308 L1200.844,1091.308 C1210.089,1091.308 1210.089,1095.931 1210.089,1100.554 C1210.089,1105.177 1210.089,1109.799 1200.844,1109.799 z" stroke="#0000FF" stroke-width="0.24" fill-opacity="0" />
  <path d="M1279.767,1159.545 L1279.767,1726.474 L1534.885,1726.474 L1534.885,1159.545 z" stroke="#0000FF" stroke-width="0.24" fill-opacity="0" />
  <path d="M733.7568,1246.81 L733.7568,1813.739 L932.182,1813.739 L932.182,1246.81 z" stroke="#0000FF" stroke-width="0.24" fill-opacity="0" />
  <path d="M775.4312,1204.673 L973.8563,1204.673 L973.8563,1318.059 L1228.974,1318.059 L1228.974,1119.634 L1484.093,1119.634 L1484.093,878.6888 L775.4312,878.6888 z" stroke="#0000FF" stroke-width="0.24" fill-opacity="0" />
  <path d="M973.8563,1725.891 L1228.974,1725.891 L1228.974,1924.317 L1484.093,1924.317 L1484.093,2165.261 L775.4312,2165.261 L775.4312,1839.277 L973.8563,1839.277 z" stroke="#0000FF" stroke-width="0.24" fill-opacity="0" />
</svg>