# Rhino

mtllib SCD S.mtl
g Layer_01
o object_1
usemtl diffuse_Black
v 19.390153884887695 4.6114673614501953 0.90621763467788696
v 19.390153884887695 4.6114673614501953 8.3274478912353516
v 19.390153884887695 21.855260848999023 0.90621763467788696
v 19.390153884887695 21.855260848999023 8.3274478912353516
v 14.090980529785156 26.581550598144531 0.90621763467788696
v 14.090980529785156 26.581550598144531 8.3274478912353516
v 2.6905989646911621 26.581550598144531 0.90621763467788696
v 2.6905989646911621 26.581550598144531 8.3274478912353516
v 2.6905989646911621 36.607009887695313 0.90621763467788696
v 2.6905989646911621 36.607009887695313 8.3274478912353516
v 11.083342552185059 36.607009887695313 0.90621763467788696
v 11.083342552185059 36.607009887695313 8.3274478912353516
v 11.083342552185059 32.969200134277344 0.90621763467788696
v 11.083342552185059 32.969200134277344 8.3274478912353516
v 19.390153884887695 32.969200134277344 0.90621763467788696
v 19.390153884887695 32.969200134277344 8.3274478912353516
v 19.390153884887695 44.913822174072266 0.90621763467788696
v 19.390153884887695 44.913822174072266 8.3274478912353516
v 11.083342552185059 44.913822174072266 0.90621763467788696
v 11.083342552185059 44.913822174072266 8.3274478912353516
v 11.083342552185059 42.564998626708984 0.90621763467788696
v 11.083342552185059 42.564998626708984 8.3274478912353516
v 8.4194345474243164 44.913822174072266 0.90621763467788696
v 8.4194345474243164 44.913822174072266 8.3274478912353516
v -0.2597510814666748 44.913822174072266 0.90621763467788696
v -0.2597510814666748 44.913822174072266 8.3274478912353516
v -5.6162118911743164 40.187534332275391 0.90621763467788696
v -5.6162118911743164 40.187534332275391 8.3274478912353516
v -5.6162118911743164 22.972383499145508 0.90621763467788696
v -5.6162118911743164 22.972383499145508 8.3274478912353516
v -0.2597510814666748 18.246095657348633 0.90621763467788696
v -0.2597510814666748 18.246095657348633 8.3274478912353516
v 11.083342552185059 18.246095657348633 0.90621763467788696
v 11.083342552185059 18.246095657348633 8.3274478912353516
v 11.083342552185059 8.2206335067749023 0.90621763467788696
v 11.083342552185059 8.2206335067749023 8.3274478912353516
v 2.6905989646911621 8.2206335067749023 0.90621763467788696
v 2.6905989646911621 8.2206335067749023 8.3274478912353516
v 2.6905989646911621 11.858443260192871 0.90621763467788696
v 2.6905989646911621 11.858443260192871 8.3274478912353516
v -5.6162118911743164 11.858443260192871 0.90621763467788696
v -5.6162118911743164 11.858443260192871 8.3274478912353516
v -5.6162118911743164 4.6114673614501953 0.90621763467788696
v -5.6162118911743164 4.6114673614501953 8.3274478912353516
v -0.2597510814666748 -0.086177617311477661 0.90621763467788696
v -0.2597510814666748 -0.086177617311477661 8.3274478912353516
v 14.090980529785156 -0.086177617311477661 0.90621763467788696
v 14.090980529785156 -0.086177617311477661 8.3274478912353516
vt 0 0
vt 0 0.56460630893707275
vt 0.041666667908430099 0
vt 0.041666667908430099 0.56460630893707275
vt 0.041666667908430099 0
vt 0.041666667908430099 0.56460630893707275
vt 0.083333335816860199 0
vt 0.083333335816860199 0.56460630893707275
vt 0.083333335816860199 0
vt 0.083333335816860199 0.56460630893707275
vt 0.125 0
vt 0.125 0.56460630893707275
vt 0.125 0
vt 0.125 0.56460630893707275
vt 0.1666666716337204 0
vt 0.1666666716337204 0.56460630893707275
vt 0.1666666716337204 0
vt 0.1666666716337204 0.56460630893707275
vt 0.2083333283662796 0
vt 0.2083333283662796 0.56460630893707275
vt 0.2083333283662796 0
vt 0.2083333283662796 0.56460630893707275
vt 0.25 0
vt 0.25 0.56460630893707275
vt 0.25 0
vt 0.25 0.56460630893707275
vt 0.2916666567325592 0
vt 0.2916666567325592 0.56460630893707275
vt 0.2916666567325592 0
vt 0.2916666567325592 0.56460630893707275
vt 0.3333333432674408 0
vt 0.3333333432674408 0.56460630893707275
vt 0.3333333432674408 0
vt 0.3333333432674408 0.56460630893707275
vt 0.375 0
vt 0.375 0.56460630893707275
vt 0.375 0
vt 0.375 0.56460630893707275
vt 0.4166666567325592 0
vt 0.4166666567325592 0.56460630893707275
vt 0.4166666567325592 0
vt 0.4166666567325592 0.56460630893707275
vt 0.4583333432674408 0
vt 0.4583333432674408 0.56460630893707275
vt 0.4583333432674408 0
vt 0.4583333432674408 0.56460630893707275
vt 0.5 0
vt 0.5 0.56460630893707275
vt 0.5 0
vt 0.5 0.56460630893707275
vt 0.54166668653488159 0
vt 0.54166668653488159 0.56460630893707275
vt 0.54166668653488159 0
vt 0.54166668653488159 0.56460630893707275
vt 0.58333331346511841 0
vt 0.58333331346511841 0.56460630893707275
vt 0.58333331346511841 0
vt 0.58333331346511841 0.56460630893707275
vt 0.625 0
vt 0.625 0.56460630893707275
vt 0.625 0
vt 0.625 0.56460630893707275
vt 0.66666668653488159 0
vt 0.66666668653488159 0.56460630893707275
vt 0.66666668653488159 0
vt 0.66666668653488159 0.56460630893707275
vt 0.70833331346511841 0
vt 0.70833331346511841 0.56460630893707275
vt 0.70833331346511841 0
vt 0.70833331346511841 0.56460630893707275
vt 0.75 0
vt 0.75 0.56460630893707275
vt 0.75 0
vt 0.75 0.56460630893707275
vt 0.79166668653488159 0
vt 0.79166668653488159 0.56460630893707275
vt 0.79166668653488159 0
vt 0.79166668653488159 0.56460630893707275
vt 0.83333331346511841 0
vt 0.83333331346511841 0.56460630893707275
vt 0.83333331346511841 0
vt 0.83333331346511841 0.56460630893707275
vt 0.875 0
vt 0.875 0.56460630893707275
vt 0.875 0
vt 0.875 0.56460630893707275
vt 0.91666668653488159 0
vt 0.91666668653488159 0.56460630893707275
vt 0.91666668653488159 0
vt 0.91666668653488159 0.56460630893707275
vt 0.95833331346511841 0
vt 0.95833331346511841 0.56460630893707275
vt 0.95833331346511841 0
vt 0.95833331346511841 0.56460630893707275
vt 1 0
vt 1 0.56460630893707275
vt 0.19196118414402008 0.56460690498352051
vt 0.10982853919267654 0.56460690498352051
vt 0.087317094206809998 0.65687233209609985
vt 0.087317094206809998 0.85536772012710571
vt 0.039565559476613998 0.85536772012710571
vt 0.039565559476613998 0.70923918485641479
vt 0.056892547756433487 0.70923918485641479
vt 0.056892547756433487 0.56460690498352051
vt 0 0.56460690498352051
vt 0 0.70923918485641479
vt 0.01118750311434269 0.70923918485641479
vt 0 0.75562125444412231
vt 0 0.90673708915710449
vt 0.022511439397931099 1
vt 0.10450765490531921 1
vt 0.12701909244060516 0.90673708915710449
vt 0.12701909244060516 0.70923918485641479
vt 0.17477062344551086 0.70923918485641479
vt 0.17477062344551086 0.85536772012710571
vt 0.15744364261627197 0.85536772012710571
vt 0.15744364261627197 1
vt 0.19196118414402008 1
vt 0.21433618664741516 0.90673708915710449
vt 0.21433618664741516 0.65687233209609985
vt 0.19196118414402008 1
vt 0.10982853919267654 1
vt 0.087317094206809998 0.90773457288742065
vt 0.087317094206809998 0.70923918485641479
vt 0.039565559476613998 0.70923918485641479
vt 0.039565559476613998 0.85536772012710571
vt 0.056892547756433487 0.85536772012710571
vt 0.056892547756433487 1
vt 0 1
vt 0 0.85536772012710571
vt 0.01118750311434269 0.85536772012710571
vt 0 0.80898559093475342
vt 0 0.65786981582641602
vt 0.022511439397931099 0.56460690498352051
vt 0.10450765490531921 0.56460690498352051
vt 0.12701909244060516 0.65786981582641602
vt 0.12701909244060516 0.85536772012710571
vt 0.17477062344551086 0.85536772012710571
vt 0.17477062344551086 0.70923918485641479
vt 0.15744364261627197 0.70923918485641479
vt 0.15744364261627197 0.56460690498352051
vt 0.19196118414402008 0.56460690498352051
vt 0.21433618664741516 0.65786981582641602
vt 0.21433618664741516 0.90773457288742065
vn 1 0 0
vn 1 0 0
vn 1 0 0
vn 1 0 0
vn 0.66561484336853027 0.74629545211791992 0
vn 0.66561484336853027 0.74629545211791992 0
vn 0.66561484336853027 0.74629545211791992 0
vn 0.66561484336853027 0.74629545211791992 0
vn 0 1 0
vn 0 1 0
vn 0 1 0
vn 0 1 0
vn 1 0 0
vn 1 0 0
vn 1 0 0
vn 1 0 0
vn 0 -1 0
vn 0 -1 0
vn 0 -1 0
vn 0 -1 0
vn -1 0 0
vn -1 0 0
vn -1 0 0
vn -1 0 0
vn 0 -1 0
vn 0 -1 0
vn 0 -1 0
vn 0 -1 0
vn 1 0 0
vn 1 0 0
vn 1 0 0
vn 1 0 0
vn 0 1 0
vn 0 1 0
vn 0 1 0
vn 0 1 0
vn -1 0 0
vn -1 0 0
vn -1 0 0
vn -1 0 0
vn 0.66135483980178833 0.75007319450378418 0
vn 0.66135483980178833 0.75007319450378418 0
vn 0.66135483980178833 0.75007319450378418 0
vn 0.66135483980178833 0.75007319450378418 0
vn 0 1 0
vn 0 1 0
vn 0 1 0
vn 0 1 0
vn -0.66162163019180298 0.74983787536621094 0
vn -0.66162163019180298 0.74983787536621094 0
vn -0.66162163019180298 0.74983787536621094 0
vn -0.66162163019180298 0.74983787536621094 0
vn -1 0 0
vn -1 0 0
vn -1 0 0
vn -1 0 0
vn -0.66162163019180298 -0.74983787536621094 0
vn -0.66162163019180298 -0.74983787536621094 0
vn -0.66162163019180298 -0.74983787536621094 0
vn -0.66162163019180298 -0.74983787536621094 0
vn 0 -1 0
vn 0 -1 0
vn 0 -1 0
vn 0 -1 0
vn -1 0 0
vn -1 0 0
vn -1 0 0
vn -1 0 0
vn 0 1 0
vn 0 1 0
vn 0 1 0
vn 0 1 0
vn 1 0 0
vn 1 0 0
vn 1 0 0
vn 1 0 0
vn 0 1 0
vn 0 1 0
vn 0 1 0
vn 0 1 0
vn -1 0 0
vn -1 0 0
vn -1 0 0
vn -1 0 0
vn -0.65935808420181274 -0.75182902812957764 0
vn -0.65935808420181274 -0.75182902812957764 0
vn -0.65935808420181274 -0.75182902812957764 0
vn -0.65935808420181274 -0.75182902812957764 0
vn 0 -1 0
vn 0 -1 0
vn 0 -1 0
vn 0 -1 0
vn 0.66335898637771606 -0.74830132722854614 0
vn 0.66335898637771606 -0.74830132722854614 0
vn 0.66335898637771606 -0.74830132722854614 0
vn 0.66335898637771606 -0.74830132722854614 0
vn 0 0 -1
vn 0 0 -1
vn 0 0 -1
vn 0 0 -1
vn 0 0 -1
vn 0 0 -1
vn 0 0 -1
vn 0 0 -1
vn 0 0 -1
vn 0 0 -1
vn 0 0 -1
vn 0 0 -1
vn 0 0 -1
vn 0 0 -1
vn 0 0 -1
vn 0 0 -1
vn 0 0 -1
vn 0 0 -1
vn 0 0 -1
vn 0 0 -1
vn 0 0 -1
vn 0 0 -1
vn 0 0 -1
vn 0 0 -1
vn 0 0 1
vn 0 0 1
vn 0 0 1
vn 0 0 1
vn 0 0 1
vn 0 0 1
vn 0 0 1
vn 0 0 1
vn 0 0 1
vn 0 0 1
vn 0 0 1
vn 0 0 1
vn 0 0 1
vn 0 0 1
vn 0 0 1
vn 0 0 1
vn 0 0 1
vn 0 0 1
vn 0 0 1
vn 0 0 1
vn 0 0 1
vn 0 0 1
vn 0 0 1
vn 0 0 1
f 43/118/118 41/117/117 39/116/116 37/115/115 35/114/114 33/113/113 \
31/112/112 29/111/111 27/110/110 25/109/109 23/108/108 21/107/107 \
19/106/106 17/105/105 15/104/104 13/103/103 11/102/102 9/101/101 \
7/100/100 5/99/99 3/98/98 1/97/97 47/120/120 45/119/119
f 42/141/141 44/142/142 46/143/143 48/144/144 2/121/121 4/122/122 \
6/123/123 8/124/124 10/125/125 12/126/126 14/127/127 16/128/128 \
18/129/129 20/130/130 22/131/131 24/132/132 26/133/133 28/134/134 \
30/135/135 32/136/136 34/137/137 36/138/138 38/139/139 40/140/140
f 1/1/1 3/3/3 4/4/4 2/2/2
f 3/5/5 5/7/7 6/8/8 4/6/6
f 5/9/9 7/11/11 8/12/12 6/10/10
f 7/13/13 9/15/15 10/16/16 8/14/14
f 9/17/17 11/19/19 12/20/20 10/18/18
f 11/21/21 13/23/23 14/24/24 12/22/22
f 13/25/25 15/27/27 16/28/28 14/26/26
f 15/29/29 17/31/31 18/32/32 16/30/30
f 17/33/33 19/35/35 20/36/36 18/34/34
f 19/37/37 21/39/39 22/40/40 20/38/38
f 21/41/41 23/43/43 24/44/44 22/42/42
f 23/45/45 25/47/47 26/48/48 24/46/46
f 25/49/49 27/51/51 28/52/52 26/50/50
f 27/53/53 29/55/55 30/56/56 28/54/54
f 29/57/57 31/59/59 32/60/60 30/58/58
f 31/61/61 33/63/63 34/64/64 32/62/62
f 33/65/65 35/67/67 36/68/68 34/66/66
f 35/69/69 37/71/71 38/72/72 36/70/70
f 37/73/73 39/75/75 40/76/76 38/74/74
f 39/77/77 41/79/79 42/80/80 40/78/78
f 41/81/81 43/83/83 44/84/84 42/82/82
f 43/85/85 45/87/87 46/88/88 44/86/86
f 45/89/89 47/91/91 48/92/92 46/90/90
f 47/93/93 1/95/95 2/96/96 48/94/94
